<svg width="35" height="35" viewBox="0 0 35 35" fill="none" xmlns="http://www.w3.org/2000/svg">
<path d="M17.5001 2.91663C15.585 2.91663 13.6886 3.29384 11.9193 4.02672C10.1499 4.7596 8.54229 5.8338 7.18811 7.18799C4.4532 9.92289 2.91675 13.6322 2.91675 17.5C2.91675 23.9458 7.10216 29.4145 12.8917 31.3541C13.6209 31.4708 13.8542 31.0187 13.8542 30.625V28.1604C9.81466 29.0354 8.95425 26.2062 8.95425 26.2062C8.28341 24.5145 7.3355 24.0625 7.3355 24.0625C6.00841 23.1583 7.43758 23.1875 7.43758 23.1875C8.89591 23.2895 9.66883 24.6895 9.66883 24.6895C10.9376 26.9062 13.0813 26.25 13.9126 25.9C14.0438 24.952 14.423 24.3104 14.8313 23.9458C11.5938 23.5812 8.19591 22.327 8.19591 16.7708C8.19591 15.152 8.75008 13.8541 9.698 12.8187C9.55216 12.4541 9.04175 10.9375 9.84383 8.96871C9.84383 8.96871 11.0688 8.57496 13.8542 10.4562C15.0063 10.1354 16.2605 9.97496 17.5001 9.97496C18.7397 9.97496 19.9938 10.1354 21.1459 10.4562C23.9313 8.57496 25.1563 8.96871 25.1563 8.96871C25.9584 10.9375 25.448 12.4541 25.3022 12.8187C26.2501 13.8541 26.8042 15.152 26.8042 16.7708C26.8042 22.3416 23.3917 23.5666 20.1397 23.9312C20.6647 24.3833 21.1459 25.2729 21.1459 26.6291V30.625C21.1459 31.0187 21.3792 31.4854 22.123 31.3541C27.9126 29.4 32.0834 23.9458 32.0834 17.5C32.0834 15.5848 31.7062 13.6885 30.9733 11.9192C30.2404 10.1498 29.1662 8.54217 27.8121 7.18799C26.4579 5.8338 24.8502 4.7596 23.0809 4.02672C21.3116 3.29384 19.4152 2.91663 17.5001 2.91663Z" fill="black"/>
</svg>
