<svg width="20" height="18" viewBox="0 0 20 18" fill="none" xmlns="http://www.w3.org/2000/svg">
<path d="M19.1663 8.33301C19.1663 7.89098 18.9907 7.46706 18.6782 7.1545C18.3656 6.84194 17.9417 6.66634 17.4997 6.66634H12.233L13.033 2.85801C13.0497 2.77467 13.058 2.68301 13.058 2.59134C13.058 2.24967 12.9163 1.93301 12.6913 1.70801L11.808 0.833008L6.32467 6.31634C6.01634 6.62467 5.83301 7.04134 5.83301 7.49967V15.833C5.83301 16.275 6.0086 16.699 6.32116 17.0115C6.63372 17.3241 7.05765 17.4997 7.49967 17.4997H14.9997C15.6913 17.4997 16.283 17.083 16.533 16.483L19.0497 10.608C19.1247 10.4163 19.1663 10.2163 19.1663 9.99967V8.33301ZM0.833008 17.4997H4.16634V7.49967H0.833008V17.4997Z" fill="#0A207D"/>
</svg>
