<svg width="35" height="35" viewBox="0 0 35 35" fill="none" xmlns="http://www.w3.org/2000/svg">
<path d="M28.9844 3.82812H6.01562C5.43546 3.82813 4.87906 4.05859 4.46883 4.46883C4.05859 4.87906 3.82813 5.43546 3.82812 6.01562V28.9844C3.82813 29.5645 4.05859 30.1209 4.46883 30.5312C4.87906 30.9414 5.43546 31.1719 6.01562 31.1719H28.9844C29.5645 31.1719 30.1209 30.9414 30.5312 30.5312C30.9414 30.1209 31.1719 29.5645 31.1719 28.9844V6.01562C31.1719 5.43546 30.9414 4.87906 30.5312 4.46883C30.1209 4.05859 29.5645 3.82813 28.9844 3.82812ZM13.125 24.0625C13.125 24.3526 13.0098 24.6308 12.8046 24.8359C12.5995 25.041 12.3213 25.1562 12.0312 25.1562C11.7412 25.1562 11.463 25.041 11.2579 24.8359C11.0527 24.6308 10.9375 24.3526 10.9375 24.0625V15.3125C10.9375 15.0224 11.0527 14.7442 11.2579 14.5391C11.463 14.334 11.7412 14.2188 12.0312 14.2188C12.3213 14.2188 12.5995 14.334 12.8046 14.5391C13.0098 14.7442 13.125 15.0224 13.125 15.3125V24.0625ZM12.0312 12.5781C11.7068 12.5781 11.3896 12.4819 11.1198 12.3016C10.85 12.1214 10.6397 11.8651 10.5155 11.5653C10.3913 11.2656 10.3588 10.9357 10.4221 10.6174C10.4855 10.2992 10.6417 10.0068 10.8712 9.7774C11.1006 9.54796 11.3929 9.3917 11.7112 9.3284C12.0294 9.2651 12.3593 9.29759 12.6591 9.42176C12.9589 9.54594 13.2151 9.75622 13.3954 10.026C13.5757 10.2958 13.6719 10.613 13.6719 10.9375C13.6719 11.3726 13.499 11.7899 13.1913 12.0976C12.8837 12.4053 12.4664 12.5781 12.0312 12.5781ZM25.1562 24.0625C25.1562 24.3526 25.041 24.6308 24.8359 24.8359C24.6308 25.041 24.3526 25.1562 24.0625 25.1562C23.7724 25.1562 23.4942 25.041 23.2891 24.8359C23.084 24.6308 22.9688 24.3526 22.9688 24.0625V19.1406C22.9688 18.4154 22.6807 17.7199 22.1679 17.2071C21.6551 16.6943 20.9596 16.4062 20.2344 16.4062C19.5092 16.4062 18.8137 16.6943 18.3009 17.2071C17.7881 17.7199 17.5 18.4154 17.5 19.1406V24.0625C17.5 24.3526 17.3848 24.6308 17.1796 24.8359C16.9745 25.041 16.6963 25.1562 16.4062 25.1562C16.1162 25.1562 15.838 25.041 15.6329 24.8359C15.4277 24.6308 15.3125 24.3526 15.3125 24.0625V15.3125C15.3117 15.0433 15.4103 14.7833 15.5892 14.5823C15.7682 14.3812 16.015 14.2532 16.2824 14.2227C16.5499 14.1922 16.8192 14.2615 17.0388 14.4171C17.2584 14.5728 17.4128 14.804 17.4727 15.0664C18.2127 14.5647 19.0755 14.2741 19.9683 14.2258C20.8611 14.1774 21.7502 14.3732 22.5401 14.7921C23.33 15.2109 23.9909 15.837 24.4518 16.6032C24.9128 17.3693 25.1563 18.2465 25.1562 19.1406V24.0625Z" fill="black"/>
</svg>
