<svg width="24" height="26" viewBox="0 0 24 26" fill="none" xmlns="http://www.w3.org/2000/svg">
<path d="M12 8.66666C13.1 8.66666 14 7.69166 14 6.49999C14 5.30833 13.1 4.33333 12 4.33333C10.9 4.33333 10 5.30833 10 6.49999C10 7.69166 10.9 8.66666 12 8.66666ZM12 10.8333C10.9 10.8333 10 11.8083 10 13C10 14.1917 10.9 15.1667 12 15.1667C13.1 15.1667 14 14.1917 14 13C14 11.8083 13.1 10.8333 12 10.8333ZM12 17.3333C10.9 17.3333 10 18.3083 10 19.5C10 20.6917 10.9 21.6667 12 21.6667C13.1 21.6667 14 20.6917 14 19.5C14 18.3083 13.1 17.3333 12 17.3333Z" fill="transparent"/>
</svg>
