<svg width="24" height="24" viewBox="0 0 24 24" fill="none" xmlns="http://www.w3.org/2000/svg">
<path d="M10 16C10.2833 16 10.521 15.904 10.713 15.712C10.9043 15.5207 11 15.2833 11 15V13H13C13.2833 13 13.521 12.904 13.713 12.712C13.9043 12.5207 14 12.2833 14 12C14 11.7167 13.9043 11.479 13.713 11.287C13.521 11.0957 13.2833 11 13 11H11V9C11 8.71667 10.9043 8.479 10.713 8.287C10.521 8.09567 10.2833 8 10 8C9.71667 8 9.47933 8.09567 9.288 8.287C9.096 8.479 9 8.71667 9 9V11H7C6.71667 11 6.479 11.0957 6.287 11.287C6.09567 11.479 6 11.7167 6 12C6 12.2833 6.09567 12.5207 6.287 12.712C6.479 12.904 6.71667 13 7 13H9V15C9 15.2833 9.096 15.5207 9.288 15.712C9.47933 15.904 9.71667 16 10 16ZM4 20C3.45 20 2.97933 19.8043 2.588 19.413C2.196 19.021 2 18.55 2 18V6C2 5.45 2.196 4.97933 2.588 4.588C2.97933 4.196 3.45 4 4 4H16C16.55 4 17.021 4.196 17.413 4.588C17.8043 4.97933 18 5.45 18 6V10.5L21.15 7.35C21.3 7.2 21.4793 7.16233 21.688 7.237C21.896 7.31233 22 7.46667 22 7.7V16.3C22 16.5333 21.896 16.6873 21.688 16.762C21.4793 16.8373 21.3 16.8 21.15 16.65L18 13.5V18C18 18.55 17.8043 19.021 17.413 19.413C17.021 19.8043 16.55 20 16 20H4Z" fill="black"/>
</svg>
