<svg width="25" height="25" viewBox="0 0 25 25" fill="none" xmlns="http://www.w3.org/2000/svg">
<path d="M21.7469 16.6838C21.7469 17.3984 21.3657 18.0586 20.7469 18.4159L13.5 22.5997C12.8812 22.957 12.1188 22.957 11.5 22.5997L4.25364 18.4159C3.63485 18.0586 3.25366 17.3984 3.25366 16.6838V8.31613C3.25366 7.60161 3.63485 6.94136 4.25364 6.58409L11.5 2.40027C12.1188 2.043 12.8812 2.04299 13.5 2.40025L20.7469 6.5841C21.3657 6.94137 21.7469 7.60163 21.7469 8.31616V16.6838Z" stroke="#05367C" stroke-width="2" stroke-linecap="round" stroke-linejoin="round"/>
<path d="M18.3636 14.7307C18.3636 15.4452 17.9824 16.1055 17.3636 16.4628L13.5 18.6934C12.8812 19.0507 12.1188 19.0507 11.5 18.6934L7.63645 16.4628C7.01766 16.1055 6.63647 15.4452 6.63647 14.7307V10.2693C6.63647 9.55474 7.01766 8.89449 7.63645 8.53722L11.5 6.30654C12.1188 5.94925 12.8812 5.94925 13.5 6.30654L17.3636 8.53722C17.9824 8.89449 18.3636 9.55473 18.3636 10.2693V14.7307Z" stroke="#05367C" stroke-width="2" stroke-linecap="round" stroke-linejoin="round"/>
<path d="M10.8118 13.3711C10.8131 14.1445 11.6543 14.6239 12.3204 14.2305L13.7811 13.3678C14.4356 12.9813 14.4366 12.0347 13.7829 11.6468L12.3194 10.7783C11.6522 10.3823 10.8078 10.8639 10.8091 11.6398L10.8118 13.3711Z" stroke="#05367C" stroke-width="2" stroke-linecap="round" stroke-linejoin="round"/>
</svg>
