<svg width="24" height="24" viewBox="0 0 24 24" fill="none" xmlns="http://www.w3.org/2000/svg">
<path d="M4.5 21C4.08333 21 3.72933 20.854 3.438 20.562C3.146 20.2707 3 19.9167 3 19.5V17.6L7 14.05V21H4.5ZM8 21V17H16V21H8ZM17 21V12.8L12.725 8.99999L15.75 6.32499L20.5 10.55C20.6667 10.7 20.7917 10.8707 20.875 11.062C20.9583 11.254 21 11.4583 21 11.675V19.5C21 19.9167 20.854 20.2707 20.562 20.562C20.2707 20.854 19.9167 21 19.5 21H17ZM3 16.25V11.675C3 11.4583 3.04167 11.25 3.125 11.05C3.20833 10.85 3.33333 10.6833 3.5 10.55L11 3.89999C11.1333 3.76666 11.2877 3.67066 11.463 3.61199C11.6377 3.55399 11.8167 3.52499 12 3.52499C12.1833 3.52499 12.3627 3.55399 12.538 3.61199C12.7127 3.67066 12.8667 3.76666 13 3.89999L15 5.67499L3 16.25Z" fill="black"/>
</svg>
