<svg width="19" height="19" viewBox="0 0 19 19" fill="none" xmlns="http://www.w3.org/2000/svg">
<path d="M12.2709 11.0833H11.6455L11.4238 10.8696C11.9185 10.2948 12.2801 9.61777 12.4827 8.88694C12.6852 8.15611 12.7237 7.38953 12.5955 6.64208C12.2234 4.44125 10.3867 2.68375 8.17004 2.41458C7.39074 2.31599 6.59921 2.39698 5.85602 2.65136C5.11283 2.90573 4.43768 3.32675 3.88224 3.8822C3.3268 4.43764 2.90578 5.11279 2.6514 5.85597C2.39703 6.59916 2.31603 7.39069 2.41462 8.17C2.68379 10.3867 4.44129 12.2233 6.64212 12.5954C7.38958 12.7237 8.15615 12.6852 8.88699 12.4826C9.61782 12.2801 10.2948 11.9185 10.8696 11.4237L11.0834 11.6454V12.2708L14.448 15.6354C14.7725 15.96 15.303 15.96 15.6275 15.6354C15.9521 15.3108 15.9521 14.7804 15.6275 14.4558L12.2709 11.0833ZM7.52087 11.0833C5.54962 11.0833 3.95837 9.49208 3.95837 7.52083C3.95837 5.54958 5.54962 3.95833 7.52087 3.95833C9.49212 3.95833 11.0834 5.54958 11.0834 7.52083C11.0834 9.49208 9.49212 11.0833 7.52087 11.0833Z" fill="#B8B8B8"/>
</svg>
