<svg width="59" height="59" viewBox="0 0 59 59" fill="none" xmlns="http://www.w3.org/2000/svg">
<path d="M9.83317 19.6667H4.9165V49.1667C4.9165 50.4706 5.43451 51.7212 6.35656 52.6433C7.27862 53.5653 8.52919 54.0833 9.83317 54.0833H39.3332V49.1667H9.83317V19.6667Z" fill="grey"/>
<path d="M49.1667 4.91666H19.6667C18.3627 4.91666 17.1121 5.43466 16.1901 6.35671C15.268 7.27877 14.75 8.52934 14.75 9.83332V39.3333C14.75 40.6373 15.268 41.8879 16.1901 42.8099C17.1121 43.732 18.3627 44.25 19.6667 44.25H49.1667C50.4706 44.25 51.7212 43.732 52.6433 42.8099C53.5653 41.8879 54.0833 40.6373 54.0833 39.3333V9.83332C54.0833 8.52934 53.5653 7.27877 52.6433 6.35671C51.7212 5.43466 50.4706 4.91666 49.1667 4.91666ZM27.0417 34.4167V14.75L44.25 24.5833L27.0417 34.4167Z" fill="grey"/>
</svg>
